<svg width="32" height="32" viewBox="0 0 32 32" fill="none" xmlns="http://www.w3.org/2000/svg">
<g clip-path="url(#clip0_139_297)">
<path d="M16.4828 18.0214C18.4473 18.4558 20.2692 18.1375 21.9485 17.0664C23.6278 15.9953 24.6847 14.4774 25.1191 12.5129C25.5535 10.5483 25.2351 8.72641 24.164 7.04713C23.093 5.36785 21.5751 4.311 19.6106 3.87658C17.646 3.44217 15.8241 3.76051 14.1448 4.83161C12.4655 5.90271 11.4087 7.42053 10.9743 9.38509C10.5398 11.3497 10.8582 13.1716 11.9293 14.8509C13.0004 16.5301 14.5182 17.587 16.4828 18.0214ZM25.9126 20.1066L31.995 29.6425L29.1162 31.4787L23.0339 21.9428L23.3108 20.6904L22.9665 20.1506C20.7418 21.3587 18.3525 21.6803 15.7986 21.1156C12.9499 20.4857 10.7483 18.9685 9.1936 16.5641C7.6389 14.1597 7.1765 11.5332 7.8064 8.6846C8.43631 5.83599 9.96574 3.63705 12.3947 2.08778C14.8237 0.53851 17.4625 0.0788283 20.3111 0.708732C23.1597 1.33864 25.3463 2.86535 26.871 5.28889C28.3958 7.71242 28.8432 10.3485 28.2133 13.1971C27.9852 14.2285 27.4817 15.3406 26.7027 16.5336C25.9238 17.7265 25.1282 18.6453 24.316 19.2899L24.6602 19.8297L25.9126 20.1066Z" fill="#354056"/>
<rect y="10.4756" width="18.762" height="18.762" rx="2.50161" fill="url(#paint0_linear_139_297)"/>
<path d="M5.01136 14.8039H6.6266L10.4831 23.6689H8.2794L7.5156 21.7908H4.07227L3.33351 23.6689H1.17986L5.01136 14.8039ZM5.76263 17.3833L4.68581 20.138H6.85198L5.76263 17.3833ZM14.8306 22.9052H14.8056C14.5969 23.2307 14.3173 23.4644 13.9667 23.6063C13.6244 23.7482 13.2613 23.8192 12.8773 23.8192C12.5935 23.8192 12.318 23.7775 12.0509 23.694C11.7922 23.6189 11.5626 23.502 11.3623 23.3434C11.1619 23.1848 11.0033 22.9886 10.8865 22.7549C10.7696 22.5212 10.7112 22.2499 10.7112 21.941C10.7112 21.5904 10.7738 21.2941 10.899 21.052C11.0325 20.8099 11.2078 20.6096 11.4249 20.451C11.6502 20.2924 11.9048 20.1713 12.1887 20.0879C12.4725 19.9961 12.7646 19.9293 13.0651 19.8875C13.374 19.8458 13.6787 19.8208 13.9792 19.8124C14.2881 19.8041 14.5719 19.7999 14.8306 19.7999C14.8306 19.466 14.7096 19.203 14.4675 19.011C14.2338 18.8107 13.9542 18.7105 13.6286 18.7105C13.3197 18.7105 13.0359 18.7773 12.7772 18.9109C12.5267 19.0361 12.3014 19.2114 12.101 19.4368L11.0993 18.41C11.4499 18.0845 11.8589 17.8424 12.3264 17.6838C12.7939 17.5168 13.278 17.4334 13.7789 17.4334C14.3298 17.4334 14.7806 17.5043 15.1312 17.6462C15.4901 17.7798 15.7739 17.9801 15.9826 18.2473C16.1996 18.5144 16.3499 18.8441 16.4334 19.2364C16.5168 19.6204 16.5586 20.067 16.5586 20.5762V23.6689H14.8306V22.9052ZM14.3674 21.0019C14.2254 21.0019 14.046 21.0103 13.8289 21.027C13.6203 21.0353 13.4157 21.0687 13.2154 21.1271C13.0234 21.1856 12.8565 21.2732 12.7146 21.3901C12.581 21.5069 12.5142 21.6697 12.5142 21.8784C12.5142 22.1038 12.6102 22.2707 12.8022 22.3793C12.9942 22.4878 13.1945 22.542 13.4032 22.542C13.5869 22.542 13.7622 22.517 13.9291 22.4669C14.1044 22.4168 14.2588 22.3459 14.3924 22.254C14.526 22.1622 14.6303 22.0454 14.7054 21.9035C14.7889 21.7615 14.8306 21.5946 14.8306 21.4026V21.0019H14.3674Z" fill="white"/>
</g>
<defs>
<linearGradient id="paint0_linear_139_297" x1="17" y1="10" x2="1.5" y2="29" gradientUnits="userSpaceOnUse">
<stop stop-color="#A978FF"/>
<stop offset="1" stop-color="#A855F8"/>
</linearGradient>
<clipPath id="clip0_139_297">
<rect width="32" height="32" fill="white"/>
</clipPath>
</defs>
</svg>
