<svg xmlns="http://www.w3.org/2000/svg" width="20" height="20" viewBox="0 0 20 20">
  <path fill="currentColor" d="M3 5.5A2.5 2.5 0 0 1 5.5 3H7a.5.5 0 0 1 0 1H5.5A1.5 1.5 0 0 0 4 5.5V7a.5.5 0 0 1-1 0V5.5ZM13 3.5a.5.5 0 0 1 .5-.5h1A2.5 2.5 0 0 1 17 5.5V7a.5.5 0 0 1-1 0V5.5A1.5 1.5 0 0 0 14.5 4h-1a.5.5 0 0 1-.5-.5ZM3.5 13a.5.5 0 0 1 .5.5v1A1.5 1.5 0 0 0 5.5 16H7a.5.5 0 0 1 0 1H5.5A2.5 2.5 0 0 1 3 14.5v-1a.5.5 0 0 1 .5-.5Zm13 0a.5.5 0 0 1 .5.5v1a2.5 2.5 0 0 1-2.5 2.5h-1a.5.5 0 0 1 0-1h1a1.5 1.5 0 0 0 1.5-1.5v-1a.5.5 0 0 1 .5-.5ZM6 7.5A1.5 1.5 0 0 1 7.5 6h5A1.5 1.5 0 0 1 14 7.5v5a1.5 1.5 0 0 1-1.5 1.5h-5A1.5 1.5 0 0 1 6 12.5v-5Z"/>
</svg>
