<svg width="26" height="22" viewBox="0 0 26 22" fill="none" xmlns="http://www.w3.org/2000/svg">
<path d="M12.8257 13.2716C14.3271 13.2716 15.6032 12.7461 16.6542 11.6952C17.7051 10.6442 18.2306 9.36809 18.2306 7.86675C18.2306 6.36541 17.7051 5.08927 16.6542 4.03833C15.6032 2.9874 14.3271 2.46193 12.8257 2.46193C11.3244 2.46193 10.0483 2.9874 8.99732 4.03833C7.94638 5.08927 7.42091 6.36541 7.42091 7.86675C7.42091 9.36809 7.94638 10.6442 8.99732 11.6952C10.0483 12.7461 11.3244 13.2716 12.8257 13.2716ZM20.0322 13.2716L26 19.2394L24.1984 21.041L18.2306 15.0732V14.1161L17.8928 13.7783C16.4665 15.0169 14.7775 15.6362 12.8257 15.6362C10.6488 15.6362 8.80027 14.8855 7.28016 13.3842C5.76005 11.8828 5 10.0437 5 7.86675C5 5.68981 5.76005 3.84128 7.28016 2.32118C8.80027 0.801069 10.6488 0.0410156 12.8257 0.0410156C15.0027 0.0410156 16.8418 0.801069 18.3432 2.32118C19.8445 3.84128 20.5952 5.68981 20.5952 7.86675C20.5952 8.65496 20.4075 9.54638 20.0322 10.541C19.6568 11.5357 19.2252 12.3332 18.7373 12.9338L19.0751 13.2716H20.0322Z" fill="#4A4A4A"/>
<rect y="7" width="14" height="14" rx="1.86667" fill="#4A4A4A"/>
<path d="M3.73932 10.2747H4.94459L7.82229 16.8896H6.17789L5.60796 15.4882H3.03858L2.48733 16.8896H0.880305L3.73932 10.2747ZM4.29991 12.1994L3.4964 14.2549H5.11277L4.29991 12.1994ZM11.0663 16.3197H11.0477C10.8919 16.5626 10.6833 16.737 10.4217 16.8429C10.1663 16.9488 9.89533 17.0018 9.60881 17.0018C9.39703 17.0018 9.19148 16.9706 8.99216 16.9083C8.79906 16.8523 8.62777 16.7651 8.47828 16.6467C8.32879 16.5284 8.21044 16.382 8.12324 16.2076C8.03604 16.0332 7.99244 15.8308 7.99244 15.6003C7.99244 15.3387 8.03915 15.1176 8.13258 14.9369C8.23225 14.7563 8.36305 14.6068 8.525 14.4885C8.69318 14.3701 8.88315 14.2798 9.09493 14.2175C9.30671 14.149 9.52472 14.0992 9.74896 14.068C9.97942 14.0369 10.2068 14.0182 10.431 14.0119C10.6615 14.0057 10.8733 14.0026 11.0663 14.0026C11.0663 13.7535 10.976 13.5572 10.7954 13.414C10.621 13.2645 10.4123 13.1897 10.1694 13.1897C9.93893 13.1897 9.72715 13.2396 9.53406 13.3392C9.3472 13.4327 9.17902 13.5635 9.02953 13.7317L8.28208 12.9655C8.54368 12.7226 8.8489 12.542 9.19771 12.4236C9.54652 12.299 9.90779 12.2367 10.2815 12.2367C10.6926 12.2367 11.029 12.2897 11.2906 12.3956C11.5584 12.4952 11.7702 12.6447 11.9259 12.8441C12.0879 13.0434 12.2 13.2894 12.2623 13.5822C12.3246 13.8687 12.3557 14.2019 12.3557 14.5819V16.8896H11.0663V16.3197ZM10.7206 14.8996C10.6148 14.8996 10.4808 14.9058 10.3189 14.9182C10.1632 14.9245 10.0106 14.9494 9.86107 14.993C9.71781 15.0366 9.59324 15.102 9.48735 15.1892C9.38769 15.2764 9.33786 15.3979 9.33786 15.5536C9.33786 15.7218 9.40949 15.8463 9.55275 15.9273C9.69601 16.0083 9.8455 16.0488 10.0012 16.0488C10.1383 16.0488 10.2691 16.0301 10.3936 15.9927C10.5244 15.9553 10.6397 15.9024 10.7393 15.8339C10.839 15.7654 10.9169 15.6781 10.9729 15.5723C11.0352 15.4664 11.0663 15.3418 11.0663 15.1985V14.8996H10.7206Z" fill="white"/>
</svg>
